<?xml version="1.0" encoding="utf-8"?>
<!-- Generator: Adobe Illustrator 22.1.0, SVG Export Plug-In . SVG Version: 6.00 Build 0)  -->
<svg version="1.1" id="Layer_1_copy" xmlns="http://www.w3.org/2000/svg" xmlns:xlink="http://www.w3.org/1999/xlink" x="0px"
	 y="0px" width="760.25537px" height="103.43311px" viewBox="0 0 760.25537 103.43311"
	 style="enable-background:new 0 0 760.25537 103.43311;" xml:space="preserve">
<style type="text/css">
	.st0{fill:#289EC4;}
</style>
<g id="background_1_">
</g>
<g>
	<g>
		<path class="st0" d="M62.9707,8.48584c-1.50049,3.67383-4.03564,10.45166-6.26074,21.57666h-2.12158
			c0.41406-1.96631,0.62109-4.08789,0.62109-6.00244c0-7.76123-4.34668-14.33252-15.05713-14.33252
			c-8.48584,0-14.79834,4.24268-14.79834,13.45312c0,16.04004,26.80273,24.16357,26.80273,41.75635
			c0,14.64258-14.54004,20.80078-26.80273,20.80078c-8.48584,0-12.52197-2.89844-15.05713-4.91602
			c-1.604-1.24219-3.00098-1.55273-3.8291-1.55273c-1.81104,0-2.74219,1.91504-4.34619,5.69238H0
			c1.91455-4.55371,4.03613-10.71094,7.19238-25.40625h2.12158c-0.51758,2.9502-1.03516,5.58887-0.93164,8.58984
			c0.41406,9.62402,5.58838,15.4707,17.28223,15.4707c9.20996,0,15.57422-4.03613,15.57422-13.24609
			c0-17.79883-24.47412-22.35254-24.47412-41.96289c0-13.66016,11.74561-20.69727,23.28418-20.69727
			c5.9502,0,9.7793,1.39697,13.81543,4.4502c1.65576,1.29346,2.74219,1.91406,3.4668,1.91406
			c1.18994,0,2.12109-1.70752,3.51807-5.58789H62.9707z"/>
	</g>
	<g>
		<path class="st0" d="M70.82959,75.23389c-0.25879,0.87891-0.3623,1.70703-0.3623,2.37988
			c0,2.94922,2.01807,4.19141,4.60547,4.19141c3.05273,0,6.26074-1.81152,9.41699-10.60742l1.50049-4.13965h2.01807l-2.2251,6.6748
			c-3.10449,9.20996-8.07178,12.00488-14.53955,12.00488c-6.51953,0-9.46875-3.41504-9.46875-8.79688
			c0-1.81055,0.3623-3.8291,0.98291-6.05371l11.22803-39.01367h-9.52051l0.51758-2.12158h9.62402l4.60498-16.0918
			c3.36328-0.10352,6.77832-0.51758,9.52051-1.50049l-5.01904,17.59229h14.02246l-0.31055,2.12158H83.14453L70.82959,75.23389z"/>
	</g>
	<g>
		<path class="st0" d="M103.36768,60.84912c-0.77588,3.36328-1.18994,6.83008-1.18994,10.24512
			c0,7.19238,2.84619,10.19336,7.2959,10.19336c5.12256,0,10.91748-2.69043,16.35059-10.60742l1.70752,0.82812
			c-4.13965,7.08887-12.31494,14.22949-21.31787,14.22949c-8.58936,0-13.9707-5.12305-13.9707-14.9541
			c0-15.36719,14.79834-42.48047,34.92627-42.48047c4.34668,0,7.86475,2.32812,7.86475,6.98535
			C135.03418,48.22412,115.5791,56.70947,103.36768,60.84912z M103.8335,58.83154
			c6.20898-2.17383,11.33154-4.34668,14.43652-6.83008c5.12207-3.98438,8.27832-9.93506,8.27832-16.91992
			c0-4.03613-0.62061-4.76025-1.70703-4.76025C117.90771,30.32129,107.76611,43.61865,103.8335,58.83154z"/>
	</g>
	<g>
		<path class="st0" d="M188.1665,43.20459c0,16.04102-11.22803,42.5332-31.04541,42.5332c-3.8291,0-7.14062-2.17383-8.64111-6.10645
			l-3.98389,13.91895c-0.25879,0.93164-0.41406,1.75977-0.41406,2.53516c0,3.93262,3.62207,5.12305,9.00293,5.12305
			l-0.67236,2.22461c-2.84619-0.10352-8.43408-0.46582-14.17773-0.46582c-4.44971,0-9.52051,0.3623-11.74561,0.46582
			l0.62109-2.22461c5.0708,0,6.88184-1.60449,8.27881-6.57129l19.81738-70.62891
			c-4.60498,10.19336-10.76221,17.02344-17.90283,23.75l-1.18994-1.3457c8.17529-7.96777,14.64307-14.64258,21.62842-31.30371
			l0.41357-1.55225c3.41504-0.10352,6.77832-0.51758,9.62402-1.50049l-11.07275,38.75488
			c6.77832-15.98828,13.14258-22.50781,20.43848-22.50781C183.82031,28.30322,188.1665,33.16699,188.1665,43.20459z
			 M179.0083,40.87646c0-6.20898-1.86279-9.20996-4.96729-9.20996c-6.15771,0-15.78174,16.29883-22.04248,35.59863l-2.74219,9.67578
			c1.86279,4.70898,4.34619,6.36426,7.76123,6.36426C168.97021,83.30518,179.0083,56.81299,179.0083,40.87646z"/>
	</g>
	<g>
		<path class="st0" d="M238.35107,74.81982c-3.05322,8.89941-8.48584,10.91797-12.83252,10.91797
			c-5.43262,0-7.45068-2.48438-7.45068-6.51953c0-2.3291,0.67236-5.1748,1.75928-8.33105l10.03809-30.32129
			c0.51709-1.44873,1.13818-3.51855,1.13818-5.27734c0-1.96631-0.82812-3.62207-3.4668-3.62207
			c-7.81299,0-18.00635,15.78125-25.87109,39.27246l-3.88086,13.29785h-9.20996l20.95557-70.68018
			c0.31055-1.08691,0.51758-2.06982,0.51758-2.89795c0-2.79395-2.01807-4.0874-7.2959-4.0874l0.62109-2.2251
			c7.76123-0.10352,13.81494-1.604,19.09277-4.34619l-15.36768,52.51904c7.91699-17.64453,15.10889-24.21582,23.95703-24.21582
			c6.41602,0,8.5376,3.4668,8.5376,8.02002c0,2.4834-0.67285,5.27783-1.55225,7.96826l-10.29688,30.94238
			c-0.46582,1.55176-0.77637,2.94922-0.77637,4.03516c0,1.55273,0.62109,2.53613,2.48389,2.53613
			c2.63867,0,5.17432-2.3291,8.17529-10.81445l1.34521-3.93262h2.01807L238.35107,74.81982z"/>
	</g>
	<g>
		<path class="st0" d="M293.91602,66.95459l-2.63916,7.76172c-3.10449,8.48535-8.07178,11.02148-12.21094,11.02148
			c-2.63916,0-4.76074-1.08691-5.84717-2.79492c-0.62061-1.08594-0.87939-2.32812-0.87939-3.72461
			c0-2.58789,0.87939-5.53711,1.65576-8.43457l1.91455-7.70996c-6.98535,16.35059-13.9707,22.66406-21.31836,22.66406
			c-6.6748,0-9.98633-5.33008-9.98633-12.83301c0-16.9707,15.26416-44.60156,31.30469-44.60156
			c3.7251,0,6.36426,2.8457,6.77783,7.9165l1.65576-6.46777c3.41504-0.10352,6.93359-0.51758,9.77979-1.44873l-13.24609,46.82715
			c-0.25879,0.93066-0.77637,2.53516-0.77637,3.93262c0,1.44824,0.56934,2.63867,2.38037,2.63867
			c2.74219,0,5.48438-2.63867,8.12354-10.81445l1.29346-3.93262H293.91602z M279.32422,49.56885l1.96631-7.70898
			c0.05176-0.82812,0.10352-1.604,0.10352-2.32861c0-5.58838-2.06982-9.20996-5.84668-9.20996
			c-9.31396,0-21.57666,25.09521-21.57666,43.82568c0,6.05371,1.34521,8.17578,3.67383,8.17578
			C263.59473,82.32275,274.04688,67.21338,279.32422,49.56885z"/>
	</g>
	<g>
		<path class="st0" d="M349.94678,74.81982c-3.05273,8.89941-8.48584,10.91797-12.83252,10.91797
			c-3.36328,0-5.48438-1.19043-6.6748-3.10547c-0.56885-0.93066-0.82764-2.12109-0.82764-3.46582
			c0-2.27734,0.72461-5.12305,1.81104-8.2793l10.03809-30.32129c0.46582-1.34521,1.08643-3.41504,1.08643-5.22559
			c0-2.01807-0.77588-3.67383-3.41504-3.67383c-8.33057,0-20.48975,19.50684-27.88916,45.1709l-1.86279,7.39941h-9.20996
			l12.67676-45.48193c0.3623-1.18994,0.77637-2.69043,0.77637-3.98389c0-1.44873-0.51758-2.5874-2.32861-2.5874
			c-3.10449,0-5.22607,2.5874-8.17529,10.81396l-1.39697,3.93262h-2.01807l2.69043-7.70947
			c3.05322-8.89941,8.02051-10.91748,12.57373-10.91748c4.86377,0,6.26074,2.69043,6.26074,6.26074
			c0,2.58691-0.72461,5.69189-1.44873,8.53711l-3.67383,14.48828c9.15869-21.73193,16.91992-29.28613,26.54395-29.28613
			c6.41602,0,8.5376,3.41504,8.5376,7.96826c0,2.4834-0.67285,5.27783-1.55225,8.02002l-10.29688,30.94238
			c-0.51758,1.55176-0.82764,2.89746-0.82764,3.98438c0,1.60352,0.72412,2.58691,2.53516,2.58691
			c2.63867,0,5.22607-2.3291,8.17529-10.81445l1.39697-3.93262h1.96631L349.94678,74.81982z"/>
	</g>
	<g>
		<path class="st0" d="M372.03467,38.75488c0.51758-1.55225,0.77588-2.8457,0.77588-3.88037
			c0-1.75928-0.77588-2.69092-2.27637-2.69092c-3.31152,0-5.64014,3.51855-8.38232,10.81396l-1.50049,3.93262h-1.96631
			l2.74219-7.70947c3.15625-8.89941,8.79639-10.91748,13.14258-10.91748c5.32959,0,7.03711,2.89746,7.03711,6.62305
			c0,2.53516-0.82764,5.48438-1.75928,8.1748l-11.33154,32.13281c-0.56934,1.55176-0.82812,2.8457-0.82812,3.88086
			c0,1.70703,0.82812,2.69043,2.53564,2.69043c2.8457,0,5.17432-2.63867,8.27881-10.81445l1.44873-3.93262h2.01807l-2.74219,7.76172
			c-2.94971,8.22656-8.17578,10.91797-13.03955,10.91797c-5.53613,0-7.39893-2.69141-7.39893-6.46875
			c0-2.4834,0.77588-5.38086,1.86279-8.38184L372.03467,38.75488z M383.05566,3.72559c3.25977,0,5.38135,2.43164,5.38135,5.53613
			c0,4.19141-3.8291,8.02002-7.96826,8.02002c-3.15625,0-5.32959-2.37988-5.32959-5.43262
			C375.13916,7.5542,379.02002,3.72559,383.05566,3.72559z"/>
	</g>
	<g>
		<path class="st0" d="M397.01807,60.84912c-0.77588,3.36328-1.18994,6.83008-1.18994,10.24512
			c0,7.19238,2.84619,10.19336,7.29541,10.19336c5.12305,0,10.91797-2.69043,16.35156-10.60742l1.70703,0.82812
			c-4.13965,7.08887-12.31445,14.22949-21.31836,14.22949c-8.58887,0-13.97021-5.12305-13.97021-14.9541
			c0-15.36719,14.79834-42.48047,34.92627-42.48047c4.34668,0,7.86426,2.32812,7.86426,6.98535
			C428.68408,48.22412,409.229,56.70947,397.01807,60.84912z M397.48389,58.83154
			c6.20898-2.17383,11.33105-4.34668,14.43652-6.83008c5.12207-3.98438,8.27832-9.93506,8.27832-16.91992
			c0-4.03613-0.62012-4.76025-1.70703-4.76025C411.55811,30.32129,401.4165,43.61865,397.48389,58.83154z"/>
	</g>
	<g>
		<path class="st0" d="M527.03174,9.20996c-2.12109,5.53662-4.3457,13.03906-6.77832,24.37109h-2.32812
			c0.41406-2.74268,0.62109-5.12256,0.62109-7.24414c0-3.4668-0.56934-6.15723-1.65625-8.43408
			c-2.69043-5.27783-8.07129-8.27881-13.91895-8.27881c-18.31641,0-35.3916,29.80371-35.3916,53.39795
			c0,13.91895,5.84668,20.80078,15.16113,20.80078c5.9502,0,13.55664-2.8457,18.88574-8.27832
			c3.77734-3.8291,6.10547-8.48633,9.52051-16.76465h2.32812c-3.51855,12.83203-5.27734,20.07617-6.26074,25.45703h-2.32812
			c0.20703-1.50098,0.31055-2.63867,0.31055-3.62207c0-1.91406-0.41406-2.69043-1.24219-2.69043
			c-0.56934,0-1.29297,0.31055-2.22461,0.93164c-5.84668,3.77637-10.71094,6.88184-20.02441,6.88184
			c-15.57422,0-24.7334-8.48633-24.7334-24.94043c0-24.06006,19.50684-53.08789,46.20605-53.08789
			c9.15918,0,12.52246,3.41504,15.83398,6.88184c0.56836,0.56934,1.08594,0.93164,1.60352,0.93164
			c1.24219,0,2.53516-1.86279,4.19141-6.31299H527.03174z"/>
	</g>
	<g>
		<path class="st0" d="M552.79443,28.30322c8.7959,0,14.48828,5.38135,14.48828,16.60938
			c0,15.57422-10.7627,40.8252-30.58008,40.8252c-8.7959,0-14.54004-5.43359-14.54004-16.66113
			C522.1626,53.50146,532.97705,28.30322,552.79443,28.30322z M531.27002,74.40576c0,6.3125,2.01758,9.20996,6.05371,9.20996
			c11.43457,0,20.85156-25.04297,20.85156-43.98096c0-6.46777-2.01758-9.21045-6.00195-9.21045
			C540.79053,30.42432,531.27002,55.52002,531.27002,74.40576z"/>
	</g>
	<g>
		<path class="st0" d="M601.83936,28.30322c8.7959,0,14.48828,5.38135,14.48828,16.60938
			c0,15.57422-10.7627,40.8252-30.58008,40.8252c-8.7959,0-14.54004-5.43359-14.54004-16.66113
			C571.20752,53.50146,582.02197,28.30322,601.83936,28.30322z M580.31494,74.40576c0,6.3125,2.01758,9.20996,6.05371,9.20996
			c11.43457,0,20.85156-25.04297,20.85156-43.98096c0-6.46777-2.01758-9.21045-6.00195-9.21045
			C589.83545,30.42432,580.31494,55.52002,580.31494,74.40576z"/>
	</g>
	<g>
		<path class="st0" d="M671.52979,74.81982c-3.05273,8.89941-8.48633,10.91797-12.83203,10.91797
			c-3.36328,0-5.48535-1.19043-6.6748-3.10547c-0.56934-0.93066-0.82812-2.12109-0.82812-3.46582
			c0-2.27734,0.72461-5.12305,1.81055-8.2793l10.03809-30.32129c0.46582-1.34521,1.08691-3.41504,1.08691-5.22559
			c0-2.01807-0.77637-3.67383-3.41504-3.67383c-8.33008,0-20.49023,19.50684-27.88867,45.1709l-1.86328,7.39941h-9.20996
			l12.67676-45.48193c0.3623-1.18994,0.77637-2.69043,0.77637-3.98389c0-1.44873-0.51758-2.5874-2.32812-2.5874
			c-3.10547,0-5.22656,2.5874-8.17578,10.81396l-1.39746,3.93262h-2.01758l2.69043-7.70947
			c3.05273-8.89941,8.02051-10.91748,12.57324-10.91748c4.86426,0,6.26172,2.69043,6.26172,6.26074
			c0,2.58691-0.72461,5.69189-1.44922,8.53711l-3.67383,14.48828c9.1582-21.73193,16.91992-29.28613,26.54395-29.28613
			c6.41602,0,8.53711,3.41504,8.53711,7.96826c0,2.4834-0.67188,5.27783-1.55176,8.02002l-10.29688,30.94238
			c-0.51758,1.55176-0.82812,2.89746-0.82812,3.98438c0,1.60352,0.72461,2.58691,2.53613,2.58691
			c2.63867,0,5.22559-2.3291,8.1748-10.81445l1.39746-3.93262h1.96582L671.52979,74.81982z"/>
	</g>
	<g>
		<path class="st0" d="M689.68604,75.23389c-0.25879,0.87891-0.3623,1.70703-0.3623,2.37988
			c0,2.94922,2.01855,4.19141,4.60547,4.19141c3.05273,0,6.26074-1.81152,9.41699-10.60742l1.50098-4.13965h2.01758l-2.22461,6.6748
			c-3.10449,9.20996-8.07227,12.00488-14.54004,12.00488c-6.51953,0-9.46875-3.41504-9.46875-8.79688
			c0-1.81055,0.3623-3.8291,0.9834-6.05371l11.22754-39.01367h-9.52051l0.51758-2.12158h9.62402l4.60547-16.0918
			c3.36328-0.10352,6.77832-0.51758,9.52051-1.50049l-5.01953,17.59229h14.02246l-0.31055,2.12158h-14.28125L689.68604,75.23389z"/>
	</g>
	<g>
		<path class="st0" d="M712.44482,80.09717c6.05371-3.8291,9.57227-5.48438,13.45312-5.48438
			c5.12305,0,8.89941,3.36328,14.33301,3.36328c3.57031,0,5.79492-1.70801,5.79492-5.27832c0-3.82812-3.4668-6.6748-8.33008-7.65723
			l0.62012-1.55273c6.46777,1.44922,10.29688,4.86426,10.29688,10.24512c0,5.63965-3.31152,11.125-12.31445,11.125
			c-7.39941,0-10.08984-4.55371-18.21387-4.55371c-3.72461,0-6.57129,0.87988-9.57227,3.93262h-2.8457l47.81055-50.3457
			c-6.05371,3.8291-9.57227,5.53662-13.45312,5.53662c-5.12305,0-8.89941-3.41504-14.33301-3.41504
			c-3.57031,0-5.79492,1.70752-5.79492,5.32959c0,3.77734,3.4668,6.6748,8.33008,7.60645l-0.62012,1.60352
			c-6.46777-1.5-10.29688-4.86328-10.29688-10.29639c0-5.58838,3.31152-11.125,12.31445-11.125
			c7.39941,0,10.08984,4.55371,18.21387,4.55371c3.72461,0,6.57129-0.82812,9.57227-3.93262h2.8457L712.44482,80.09717z"/>
	</g>
</g>
</svg>
