<svg xmlns="http://www.w3.org/2000/svg" width="1199.75" height="255.75" viewBox="0 0 1199.75 255.75"><defs><style>.cls-1{fill:#289ec4;}.cls-2{fill:#d7613b;}</style></defs><title>workingtitle</title><g id="Layer_1" data-name="Layer 1"><text></text></g><g id="Stephanie"><path class="cls-1" d="M140.44336,77.603a32.23419,32.23419,0,0,1,6.5625,3.4375,9.019,9.019,0,0,0,4.25,1.75,1.93085,1.93085,0,0,0,1.75-1.3125,14.941,14.941,0,0,0,1-4.1875h2.875q-.627,7.251-.625,25.5h-2.875a32.36866,32.36866,0,0,0-5.8125-17.0625q-5.0625-6.9375-14.6875-6.9375a15.26623,15.26623,0,0,0-11,4.0625,13.79955,13.79955,0,0,0-4.25,10.4375,15.23147,15.23147,0,0,0,2.1875,8.25,21.73972,21.73972,0,0,0,5.5625,6q3.375,2.502,9.625,6.375l3.625,2.25a125.52293,125.52293,0,0,1,12.4375,8.5625,30.46093,30.46093,0,0,1,7.3125,8.438,21.82731,21.82731,0,0,1,2.75,11.125q0,11.376-7.5,17.5625-7.5,6.1875-19,6.1875a32.16044,32.16044,0,0,1-9.8125-1.25,34.96639,34.96639,0,0,1-7.3125-3.375,9.04751,9.04751,0,0,0-4.25-1.75,1.92892,1.92892,0,0,0-1.75,1.3125,14.89041,14.89041,0,0,0-1,4.1875h-2.875q.498-6.87306.5-30h2.875q.873,12.62694,6.25,20.5,5.373,7.875,16.5,7.875a16.7823,16.7823,0,0,0,11.5-4.1875q4.749-4.18653,4.75-12.4375a16.496,16.496,0,0,0-4.6875-11.875q-4.6875-4.875-14.8125-11.00049a138.68376,138.68376,0,0,1-11.9375-8,28.75454,28.75454,0,0,1-7.4375-8.4375,22.54812,22.54812,0,0,1-2.875-11.5625q0-10.5,6.75-16.0625,6.75-5.56055,16.75-5.5625A25.63379,25.63379,0,0,1,140.44336,77.603Z"/><path class="cls-1" d="M191.00488,102.04053h18.5v2.5h-18.5V152.916q0,5.625,2.0625,8.125a7.25318,7.25318,0,0,0,5.9375,2.5,8.52494,8.52494,0,0,0,6.625-3.125q2.748-3.12306,4.625-10.25l2.5.625q-3.126,17.25-16.25,17.25a20.77126,20.77126,0,0,1-7-1,13.2028,13.2028,0,0,1-4.875-3.125,14.64475,14.64475,0,0,1-3.8125-6.75,43.42446,43.42446,0,0,1-1.0625-10.75V104.54053h-12v-2.5h12v-19.125a38.81161,38.81161,0,0,0,11.25-1.75Z"/><path class="cls-1" d="M269.37842,151.291a24.85321,24.85321,0,0,1-8.4375,11.8125,23.20848,23.20848,0,0,1-14.9375,4.9375,28.416,28.416,0,0,1-15.375-4.0625,26.20048,26.20048,0,0,1-9.9375-11.375,39.38226,39.38226,0,0,1-3.4375-16.9375,46.80476,46.80476,0,0,1,3.5-18.87549,27.9122,27.9122,0,0,1,9.875-12.3125,25.907,25.907,0,0,1,14.875-4.3125q11.25,0,17.3125,6.8125,6.06151,6.81445,6.0625,20.6875h-39.125a75.88133,75.88133,0,0,0-.375,8.00049,35.51494,35.51494,0,0,0,2.6875,14.375,22.92423,22.92423,0,0,0,7.125,9.4375,15.33318,15.33318,0,0,0,9.3125,3.3125,19.69662,19.69662,0,0,0,10.625-2.875q4.623-2.874,7.75-9.625Zm-34.5-43.00049q-4.251,5.751-5.25,17h27.25q.249-9.75-2.8125-16.25-3.06446-6.498-9.0625-6.5Q239.12647,102.54053,234.87842,108.29053Z"/><path class="cls-1" d="M330.19092,103.79053a23.78223,23.78223,0,0,1,8.3125,10.625,42.37931,42.37931,0,0,1,3,16.75,52.01578,52.01578,0,0,1-3.0625,18.00049,30.84987,30.84987,0,0,1-9.5,13.625q-6.43946,5.25-16.0625,5.25a19.53369,19.53369,0,0,1-8.625-1.875,15.32967,15.32967,0,0,1-6-4.875v16q0,5.124,3,7.0625,3,1.93651,9,1.9375v2.625l-2.875-.125q-11.625-.375-15.125-.375-3,0-13.5.5v-2.625q4.623,0,6.4375-1.6875,1.81054-1.6875,1.8125-6.0625V115.54053q0-5.748-2.125-8.375-2.127-2.625-7.375-2.625v-2.625q3.873.375,7.75.375a40.8096,40.8096,0,0,0,13-1.75v13.25a22.28426,22.28426,0,0,1,8-10.0625,21.72718,21.72718,0,0,1,23.9375.0625Zm-.8125,29.12549q0-28.99878-14.5-29.00049a14.72885,14.72885,0,0,0-10.125,4.0625q-4.5,4.06347-6.5,11.6875V157.166a14.08991,14.08991,0,0,0,5.125,5.8125,14.60609,14.60609,0,0,0,8.125,2.1875Q329.37744,165.166,329.37842,132.916Z"/><path class="cls-1" d="M370.62744,115.16553q3.123-7.875,8.6875-11.4375a22.78643,22.78643,0,0,1,12.5625-3.5625q8.748,0,13.25,4.75a14.23065,14.23065,0,0,1,3.375,6.25,40.864,40.864,0,0,1,1,10.125V154.666q0,5.12694,2.125,7.0625,2.124,1.93944,7.375,1.9375v2.625q-11.502-.49806-15-.5-3.501,0-14,.5v-2.625q4.623,0,6.4375-1.9375,1.81055-1.93653,1.8125-7.0625V118.54053q0-6.999-2-10.6875-2.001-3.68555-8.125-3.6875a14.96843,14.96843,0,0,0-9.0625,2.875,19.134,19.134,0,0,0-6.1875,8.0625,29.09817,29.09817,0,0,0-2.25,11.6875V154.666q0,5.12694,1.8125,7.0625,1.81055,1.93944,6.4375,1.9375v2.625q-10.5-.49806-14-.5-3.501,0-15,.5v-2.625q5.25,0,7.375-1.9375,2.124-1.93653,2.125-7.0625V83.41553q0-5.748-2.125-8.375-2.127-2.625-7.375-2.625v-2.625q3.999.375,7.75.375a40.8096,40.8096,0,0,0,13-1.75Z"/><path class="cls-1" d="M429.56445,163.22852Q425.75,159.291,425.752,152.291a13.83391,13.83391,0,0,1,3.0625-9.25,23.0814,23.0814,0,0,1,7.25-5.75,90.45619,90.45619,0,0,1,11.0625-4.5,58.25215,58.25215,0,0,0,10.375-4.37549,6.04656,6.04656,0,0,0,3.375-5.375v-7.75q0-7.248-3.0625-9.9375-3.06446-2.68653-8.5625-2.6875-8.751,0-12.375,4.5a7.86682,7.86682,0,0,1,4.1875,2.625,7.48788,7.48788,0,0,1,1.6875,5,6.33161,6.33161,0,0,1-2,4.9375,7.33955,7.33955,0,0,1-5.125,1.8125,6.31558,6.31558,0,0,1-5.25-2.1875,8.22574,8.22574,0,0,1-1.75-5.3125,8.3445,8.3445,0,0,1,1.4375-5,17.66755,17.66755,0,0,1,4.3125-4,25.9771,25.9771,0,0,1,7.625-3.5,35.42267,35.42267,0,0,1,10.125-1.375q9.75,0,14.75,4.625a14.12135,14.12135,0,0,1,4.1875,6.9375,43.67039,43.67039,0,0,1,1.0625,10.6875V157.166a8.70427,8.70427,0,0,0,.875,4.5,3.27146,3.27146,0,0,0,3,1.375,5.96517,5.96517,0,0,0,2.8125-.6875,16.2007,16.2007,0,0,0,2.8125-1.9375l1.375,2.125a30.53066,30.53066,0,0,1-5.5625,3.5625,13.96275,13.96275,0,0,1-5.8125,1.0625q-6,0-8.375-3a12.73423,12.73423,0,0,1-2.375-8.125q-3.75,6.25194-8.625,8.6875a24.2625,24.2625,0,0,1-11,2.4375Q433.377,167.166,429.56445,163.22852ZM460.877,152.666V128.16553a8.692,8.692,0,0,1-3.125,2.875q-2.001,1.125-6.125,3.00049a57.35276,57.35276,0,0,0-7.6875,3.8125,16.7803,16.7803,0,0,0-5.0625,4.9375,13.92816,13.92816,0,0,0-2.125,8q0,5.625,2.75,8.5a9.56436,9.56436,0,0,0,7.25,2.875Q455.002,162.166,460.877,152.666Z"/><path class="cls-1" d="M542.00049,104.91553a14.23065,14.23065,0,0,1,3.375,6.25,40.86449,40.86449,0,0,1,1,10.125V154.666q0,5.12694,2.125,7.0625,2.124,1.93944,7.375,1.9375v2.625q-11.502-.49806-15-.5-3.501,0-14,.5v-2.625q4.623,0,6.4375-1.9375,1.81055-1.93653,1.8125-7.0625V118.54053q0-6.999-2-10.6875-2.001-3.68555-8.125-3.6875a14.80617,14.80617,0,0,0-9.125,3,19.36011,19.36011,0,0,0-6.1875,8.1875,29.4699,29.4699,0,0,0-2.1875,11.5625V154.666q0,5.12694,1.8125,7.0625,1.81054,1.93944,6.4375,1.9375v2.625q-10.5-.49806-14-.5-3.501,0-15,.5v-2.625q5.25,0,7.375-1.9375,2.124-1.93653,2.125-7.0625V115.54053q0-5.748-2.125-8.375-2.127-2.625-7.375-2.625v-2.625q3.999.375,7.75.375a40.8096,40.8096,0,0,0,13-1.75v14.75q3.123-7.998,8.6875-11.5625a22.78643,22.78643,0,0,1,12.5625-3.5625Q537.49854,100.16553,542.00049,104.91553Z"/><path class="cls-1" d="M582.12305,154.666q0,5.12694,2.125,7.0625,2.124,1.93944,7.375,1.9375v2.625q-11.502-.49806-15.125-.5-3.627,0-15.125.5v-2.625q5.25,0,7.375-1.9375,2.124-1.93653,2.125-7.0625V115.54053q0-5.748-2.125-8.375-2.127-2.625-7.375-2.625v-2.625q3.999.375,7.75.375a40.8096,40.8096,0,0,0,13-1.75Zm-.875-81.62549a7.84868,7.84868,0,1,1-5.625-2.375A7.69528,7.69528,0,0,1,581.24805,73.04053Z"/><path class="cls-1" d="M652.24805,151.291a24.85321,24.85321,0,0,1-8.4375,11.8125,23.20848,23.20848,0,0,1-14.9375,4.9375,28.416,28.416,0,0,1-15.375-4.0625,26.20048,26.20048,0,0,1-9.9375-11.375,39.38226,39.38226,0,0,1-3.4375-16.9375,46.80476,46.80476,0,0,1,3.5-18.87549,27.9122,27.9122,0,0,1,9.875-12.3125,25.907,25.907,0,0,1,14.875-4.3125q11.25,0,17.3125,6.8125,6.06151,6.81445,6.0625,20.6875h-39.125a75.88133,75.88133,0,0,0-.375,8.00049,35.51494,35.51494,0,0,0,2.6875,14.375,22.92423,22.92423,0,0,0,7.125,9.4375,15.33318,15.33318,0,0,0,9.3125,3.3125,19.69662,19.69662,0,0,0,10.625-2.875q4.623-2.874,7.75-9.625Zm-34.5-43.00049q-4.251,5.751-5.25,17h27.25q.249-9.75-2.8125-16.25-3.06446-6.498-9.0625-6.5Q621.9961,102.54053,617.74805,108.29053Z"/><path class="cls-1" d="M747.87207,78.16553a43.36933,43.36933,0,0,1,10.25,6,4.04216,4.04216,0,0,0,2.375,1.125q2.499,0,3.25-7.5h2.875q-.501,8.127-.5,28.75h-2.875a97.41232,97.41232,0,0,0-2.5-11.6875,20.82163,20.82163,0,0,0-3.75-6.8125,23.11782,23.11782,0,0,0-9.5625-7.3125,32.15311,32.15311,0,0,0-12.5625-2.4375,20.713,20.713,0,0,0-14.1875,5.375q-6.06445,5.376-9.4375,15.3125a72.59322,72.59322,0,0,0-3.375,23.3125q0,13.626,3.625,23.37549,3.624,9.75,10.0625,14.8125a22.9362,22.9362,0,0,0,14.5625,5.0625,32.06124,32.06124,0,0,0,12.125-2.375,20.40827,20.40827,0,0,0,9.25-7.125,24.00328,24.00328,0,0,0,3.625-7.5,88.71606,88.71606,0,0,0,2.125-12.25h2.875q0,21.501.5,30h-2.875a22.19475,22.19475,0,0,0-1.0625-5.6875q-.68847-1.6875-1.9375-1.6875a5.4778,5.4778,0,0,0-2.625,1,52.78369,52.78369,0,0,1-10.75,6.0625,33.16205,33.16205,0,0,1-12.375,2.0625,39.5854,39.5854,0,0,1-20.8125-5.375,35.8578,35.8578,0,0,1-13.875-15.5625q-4.93945-10.18653-4.9375-24.313a56.027,56.027,0,0,1,5.0625-24.375,39.24752,39.24752,0,0,1,14.125-16.5,36.96981,36.96981,0,0,1,20.5625-5.875A34.02368,34.02368,0,0,1,747.87207,78.16553Z"/><path class="cls-1" d="M829.55859,108.603q7.81055,8.4375,7.8125,25.563,0,17.12694-7.8125,25.5-7.81347,8.376-20.5625,8.375-12.75,0-20.5625-8.375-7.81347-8.37306-7.8125-25.5,0-17.12476,7.8125-25.563,7.81055-8.4375,20.5625-8.4375Q821.74609,100.16553,829.55859,108.603Zm-32.4375,1.75q-4.377,7.6875-4.375,23.813,0,16.125,4.375,23.75,4.374,7.626,11.875,7.625,7.5,0,11.875-7.625,4.374-7.62306,4.375-23.75,0-16.12573-4.375-23.813-4.377-7.6875-11.875-7.6875Q801.49609,102.66553,797.12109,110.353Z"/><path class="cls-1" d="M898.05664,108.603q7.81055,8.4375,7.8125,25.563,0,17.12694-7.8125,25.5-7.81347,8.376-20.5625,8.375-12.75,0-20.5625-8.375-7.81347-8.37306-7.8125-25.5,0-17.12476,7.8125-25.563,7.81055-8.4375,20.5625-8.4375Q890.24414,100.16553,898.05664,108.603Zm-32.4375,1.75q-4.377,7.6875-4.375,23.813,0,16.125,4.375,23.75,4.374,7.626,11.875,7.625,7.5,0,11.875-7.625,4.374-7.62306,4.375-23.75,0-16.12573-4.375-23.813-4.377-7.6875-11.875-7.6875Q869.99414,102.66553,865.61914,110.353Z"/><path class="cls-1" d="M970.61816,104.91553a14.23045,14.23045,0,0,1,3.375,6.25,40.864,40.864,0,0,1,1,10.125V154.666q0,5.12694,2.125,7.0625,2.124,1.93944,7.375,1.9375v2.625q-11.50194-.49806-15-.5-3.501,0-14,.5v-2.625q4.62306,0,6.4375-1.9375,1.81056-1.93653,1.8125-7.0625V118.54053q0-6.999-2-10.6875-2.001-3.68555-8.125-3.6875a14.80621,14.80621,0,0,0-9.125,3,19.36027,19.36027,0,0,0-6.1875,8.1875,29.47008,29.47008,0,0,0-2.1875,11.5625V154.666q0,5.12694,1.8125,7.0625,1.81056,1.93944,6.4375,1.9375v2.625q-10.5-.49806-14-.5-3.501,0-15,.5v-2.625q5.25,0,7.375-1.9375,2.124-1.93653,2.125-7.0625V115.54053q0-5.748-2.125-8.375-2.12694-2.625-7.375-2.625v-2.625q3.999.375,7.75.375a40.80956,40.80956,0,0,0,13-1.75v14.75q3.12306-7.998,8.6875-11.5625a22.78648,22.78648,0,0,1,12.5625-3.5625Q966.11622,100.16553,970.61816,104.91553Z"/><path class="cls-1" d="M1010.11621,102.04053h18.5v2.5h-18.5V152.916q0,5.625,2.0625,8.125a7.25318,7.25318,0,0,0,5.9375,2.5,8.52494,8.52494,0,0,0,6.625-3.125q2.748-3.12306,4.625-10.25l2.5.625q-3.126,17.25-16.25,17.25a20.77126,20.77126,0,0,1-7-1,13.2028,13.2028,0,0,1-4.875-3.125,14.64475,14.64475,0,0,1-3.8125-6.75,43.42446,43.42446,0,0,1-1.0625-10.75V104.54053h-12v-2.5h12v-19.125a38.81161,38.81161,0,0,0,11.25-1.75Z"/><path class="cls-1" d="M1049.36426,164.416h13.75q7.749,0,12.125-4.8125,4.374-4.81056,5.25-15.3125h2.875q0,16.37694.5,22.5-9.876-.501-23.25-.5-11.877,0-25.25.625l36.125-63.12549h-13.75q-8.376,0-12.4375,4.6875-4.06349,4.6875-4.9375,15.4375h-2.875q0-16.374-.5-22.5,9.873.501,23.25.5,11.874,0,25.25-.625Z"/></g><g id="Tree"><path class="cls-1" d="M79.75,79.75H0V0H79.75ZM5.82444,73.92556H73.92556V5.82444H5.82444Z"/><path class="cls-2" d="M74.44747,74.44747H5.30253V5.30253H74.44747Zm-64.095-5.04991H69.39756V10.35244H10.35244Z"/><path class="cls-2" d="M79.75,167.75H0V88H79.75ZM5.82444,161.92556H73.92556V93.82444H5.82444Z"/><path class="cls-1" d="M74.44747,162.44747H5.30253V93.30253H74.44747Zm-64.095-5.04991H69.39756V98.35244H10.35244Z"/><path class="cls-1" d="M79.75,255.75H0V176H79.75ZM5.82444,249.92556H73.92556V181.82444H5.82444Z"/><path class="cls-2" d="M74.44747,250.44747H5.30253V181.30253H74.44747Zm-64.095-5.04991H69.39756V186.35244H10.35244Z"/><path class="cls-1" d="M1199.75,79.75H1120V0h79.75Zm-73.92556-5.82444h68.10112V5.82444h-68.10112Z"/><path class="cls-2" d="M1194.44747,74.44747h-69.14494V5.30253h69.14494Zm-64.095-5.04991h59.04512V10.35244h-59.04512Z"/><path class="cls-2" d="M1199.75,167.75H1120V88h79.75Zm-73.92556-5.82444h68.10112V93.82444h-68.10112Z"/><path class="cls-1" d="M1194.44747,162.44747h-69.14494V93.30253h69.14494Zm-64.095-5.04991h59.04512V98.35244h-59.04512Z"/><path class="cls-1" d="M1199.75,255.75H1120V176h79.75Zm-73.92556-5.82444h68.10112V181.82444h-68.10112Z"/><path class="cls-2" d="M1194.44747,250.44747h-69.14494V181.30253h69.14494Zm-64.095-5.04991h59.04512V186.35244h-59.04512Z"/></g></svg>