<svg version="1" xmlns="http://www.w3.org/2000/svg" width="933.333" height="933.333" viewBox="0 0 700.000000 700.000000"><path d="M294.5 1.6c-10 1.4-11.8 1.7-19 3.4-2.7.6-5.7 1.3-6.5 1.5-6.4 1.4-22.5 7.6-32.5 12.5-13.4 6.7-25.9 15.3-36.2 25-6.2 5.9-8.2 8.1-14.8 16.1-2.9 3.6-10.8 16.8-13.4 22.3-4.6 10.1-8.2 21.1-10.7 33.1-1.9 9-2.5 34.9-1.1 46 2.8 21.9 12 45.6 26 66.5 10.8 16.2 19.6 26.1 46 52.1 11 10.8 19.8 20.1 19.6 20.5-.2.5-4.3 6.7-9 13.9-25.4 38.2-44.9 81.9-56.4 126.2-1.9 7.2-3.7 14.4-4 16-1.6 8.7-4.5 25.5-5 29.8-.3 2.7-.8 6.6-1 8.5-.2 1.9-.7 7.3-1.1 12-.3 4.7-.7 8.6-.8 8.8-.2.1-3.2-.7-6.7-1.9-53.8-17.6-76.3-70.8-61.9-146.4.5-2.8 1.1-6.5 1.4-8.3l.4-3.2H101c-3.8 0-7.1.3-7.3.7-.3.5-1.7 6.2-3.2 12.8-1.5 6.6-2.8 12.7-3 13.5-13.3 58.9-27 106.7-39.5 137.8-2.1 5.1-3.5 9.4-3.1 9.6.3.1 3.5.2 7 .2 4.6-.1 6.6-.5 7.2-1.6.5-.8 3-6.3 5.7-12.2 6.1-13 10.2-19.1 15.2-22.4 8.6-5.7 21.5-2.2 37.8 10.3 4.5 3.4 8.4 6.3 8.7 6.3.2 0 2.4 1.4 4.9 3.1 6.4 4.3 23.9 12.2 31.6 14.3 3.6 1 7.6 2.2 9 2.6 1.7.4 2.5 1.4 2.6 3.1.3 6.1 1.5 22.7 1.9 25.4.2 1.6.6 4.8.9 7 1 7.4 1.7 11 3.7 19 12.4 50.1 42.2 84.9 87.6 102.1 7.4 2.8 27.2 8.1 33.1 8.9 2 .2 4.8.7 6.1 1 13.6 2.7 58.3 2.7 72.2 0 1.3-.3 3.8-.7 5.4-.9 1.7-.2 6.8-1.4 11.5-2.6 4.7-1.2 9.2-2.3 10-2.5 2.8-.6 17.6-6.3 24.5-9.4 7.7-3.5 27-14.2 36-20.1 24.9-16 29.3-17.8 34-13.7 1.4 1.2 3 3.8 3.5 5.7 1 3.6.7 23.2-.5 31.1l-.7 4.6h16l2.1-10.6c1.2-5.8 2.4-11.6 2.7-12.9 3.4-16.8 8.4-37.4 19.9-83.2.4-1.3 6.4-24.1 9.6-36 .5-1.9 1.2-4.4 1.5-5.5.2-1.1 1.9-7.4 3.7-14l3.3-12-5.5-.5c-10.1-.9-9.4-1.7-19.1 20.5-22.2 51.2-35.9 73.7-57.4 95-23.2 22.9-44.9 36-80.6 48.5-4.5 1.6-18.4 4.9-23.5 5.5-2.7.4-6.8 1-9.1 1.4-4.8.9-28.3.7-33.4-.3-20.7-4-34.3-10.5-47.5-22.8-18.8-17.7-31.7-45.5-36.1-78.3-.3-2.8-.8-5.8-1-6.9-1.2-6.6-2.4-42-1.3-43 .2-.2 2.7-.7 5.4-1 26.9-3.4 58-13.7 80.5-26.6 23.8-13.7 41.7-31.6 53.4-53.2 13.4-24.8 18.2-57 12.5-84.3-2.9-13.6-9.3-29.6-17.4-43-4.5-7.5-16.1-23.5-20.2-28-1-1.1-3.3-3.8-5.2-6-1.8-2.2-6.5-7.2-10.3-11.2-4.6-4.8-6.7-7.7-6.2-8.5.4-.7 4.1-5.5 8.2-10.7 10.6-13.4 26.2-29.8 37.1-39.1 2.9-2.5 6.7-5.7 8.4-7.3 11.7-10.2 39.7-26.2 54.5-31.1 8.5-2.8 9.2-3 19.7-5.3 11.9-2.5 39.6-2.1 47.1.7 1.3.5 2.4.7 2.4.5 0-.7 17.1 5.5 22.5 8.2 19.3 9.7 35.8 26.1 45.5 45.2 11.5 22.6 14.3 55.5 8.5 100.1-.4 3-.8 5.9-.8 6.5-.1.5 3.1 1 7.7 1h8l1.9-8.5c5.9-26 16.3-68.6 20.2-82.5 2.5-8.8 4.7-16.7 4.9-17.5 1.5-5.6 10.3-32.9 14.5-44.7l5-14.2-7.6.2-7.6.2-4.2 10c-7.8 18.7-13.3 27.6-19.8 31.5-5.7 3.5-9 1.8-23.2-12.2-5.5-5.4-13.1-12.3-17-15.3-15.9-12.6-37.9-20.9-62.5-23.4-8.2-.9-45.4-.7-49.5.2-1.1.3-4.2.8-7 1.1-14.7 2-30.2 5.6-47.4 11.3-13.1 4.2-45.1 18.9-46.6 21.3-.3.6-1 .8-1.5.5-.4-.3-1.3.2-2 1s-1.7 1.5-2.2 1.5c-.5 0-1.4.4-2.1 1-.7.5-6.1 4.2-12.2 8.2-6 4-11.6 7.8-12.3 8.5-.7.7-1.6 1.3-2 1.3-.4 0-2.1 1.3-3.8 2.8-1.7 1.5-5 4.3-7.4 6.2-4.9 4-5.4 4.4-9.7 8.3l-3 2.8-9.8-9.3c-35.3-33.5-50.1-50.7-62.4-72.3-9.5-16.8-14.1-32.7-14.6-50.1-.5-19 2.8-35.1 10.1-49.4 4.5-8.8 6.3-11.3 13.1-18.3 13.7-14 33.2-23 58-26.6 7-1 38.1-.8 44.3.4 43.2 8 68.3 31.8 77 73 1.6 7.5 1.9 12.2 1.6 28-.2 10.4-.6 20.1-.9 21.5-.3 1.4-.8 4.3-1.1 6.5-.4 2.2-.8 5.1-1.1 6.5-.6 2.6-.5 2.6 6.4 2.5 3.8 0 7.2-.2 7.5-.5.2-.3.7-1.7 1-3 4.6-24.2 14.1-61.9 22.1-87.9 6.2-19.9 8.8-27.6 15.3-44.6 5.2-13.8 5.5-12.6-2.7-12.4l-7 .2-2.7 7.1c-6.6 17.3-13 28.1-17.9 30.2-4.7 1.9-9.7.3-19.2-6.3-4.6-3.2-12-8.4-16.6-11.5-19.3-13.3-40.1-21-64.7-23.7-10.9-1.2-36.1-.9-46.5.5zm8.8 354.7c9.2 13.7 17.9 32.4 20.1 43.3.3 1 .9 3.9 1.4 6.4 1.7 7.4 2.3 14 2.4 24 .1 43.9-21.5 73.8-61.7 85.5-10.2 2.9-18.1 4.3-17.3 2.9.3-.5.8-4.7 1.2-9.4.3-4.7.8-9.4 1-10.5.2-1.1.7-4.3 1-7 .9-6.6 1.4-10 2.6-16 .5-2.8 1.2-6.6 1.5-8.5.3-1.9 1-5.1 1.5-7 .5-1.9 1.1-4.6 1.4-6 1.4-8.3 10.2-38.9 15.1-53 7.9-22.4 21.8-54.5 23.4-53.6.4.3 3.4 4.3 6.4 8.9z"/></svg>